<?xml version="1.0" encoding="UTF-8" standalone="no"?>
<svg
   width="20px"
   height="20px"
   version="1.1"
   xml:space="preserve"
   style="fill-rule:evenodd;clip-rule:evenodd;stroke-linejoin:round;stroke-miterlimit:2;"
   id="svg8"
   sodipodi:docname="ae.svg"
   inkscape:version="1.3.2 (091e20e, 2023-11-25, custom)"
   xmlns:inkscape="http://www.inkscape.org/namespaces/inkscape"
   xmlns:sodipodi="http://sodipodi.sourceforge.net/DTD/sodipodi-0.dtd"
   xmlns="http://www.w3.org/2000/svg"
   xmlns:svg="http://www.w3.org/2000/svg"><defs
   id="defs12" /><sodipodi:namedview
   id="namedview10"
   pagecolor="#ffffff"
   bordercolor="#000000"
   borderopacity="0.25"
   inkscape:showpageshadow="2"
   inkscape:pageopacity="0.0"
   inkscape:pagecheckerboard="0"
   inkscape:deskcolor="#d1d1d1"
   showgrid="true"
   inkscape:zoom="51.35"
   inkscape:cx="10.019474"
   inkscape:cy="9.104187"
   inkscape:window-width="2560"
   inkscape:window-height="1369"
   inkscape:window-x="-8"
   inkscape:window-y="-8"
   inkscape:window-maximized="1"
   inkscape:current-layer="svg8"><inkscape:grid
     type="xygrid"
     id="grid1061"
     originx="0"
     originy="0"
     spacingy="1"
     spacingx="1"
     units="px"
     visible="true" /></sodipodi:namedview>
    <rect
   x="0"
   y="0"
   width="20"
   height="20"
   style="fill-opacity:0;"
   id="rect2" />
    
<path
   d="M 5,5 V 19 H 19 V 5 Z M 6,6 H 18 V 18 H 6 Z"
   id="path1"
   sodipodi:nodetypes="cccccccccc" /><path
   d="M 1,1 V 15 H 4 V 14 H 2 V 2 h 12 v 2 h 1 V 1 Z"
   id="path2"
   sodipodi:nodetypes="ccccccccccc" /><path
   style="font-size:10.6667px;font-family:'Franklin Gothic Medium Cond';-inkscape-font-specification:'Franklin Gothic Medium Cond';letter-spacing:-0.41px;stroke-width:1.10073"
   d="m 9.0848787,8.0610034 h 1.4300453 l 2.068761,7.9371916 H 11.289297 L 10.803195,14.009536 H 8.5479053 L 8.0731076,15.998195 H 6.8521993 Z M 10.548838,12.974504 9.6727234,9.3402584 8.802261,12.974504 Z m 6.467876,0.26748 H 13.78922 q 0,1.192032 0.310881,1.593253 0.316531,0.395406 0.791329,0.395406 0.791328,0 1.000466,-1.098996 l 1.073947,0.14537 q -0.423926,1.866548 -2.11398,1.866548 -1.034381,0 -1.650487,-0.761738 -0.616106,-0.761737 -0.616106,-2.23288 0,-1.511846 0.621758,-2.337547 0.621759,-0.8256996 1.661793,-0.8256996 0.729153,0 1.22656,0.4128496 0.497407,0.41285 0.700891,1.087366 0.203486,0.668701 0.220442,1.756068 z m -1.20395,-0.819887 q 0,-1.552549 -0.983509,-1.552549 -0.921335,0 -1.011773,1.552549 z"
   id="text2"
   aria-label="Ae" /></svg>
