<?xml version="1.0" encoding="UTF-8" standalone="no"?>
<svg
   width="20px"
   height="20px"
   version="1.1"
   xml:space="preserve"
   style="fill-rule:evenodd;clip-rule:evenodd;stroke-linejoin:round;stroke-miterlimit:2;"
   id="svg8"
   sodipodi:docname="brush_large.svg"
   inkscape:version="1.2.1 (9c6d41e410, 2022-07-14)"
   xmlns:inkscape="http://www.inkscape.org/namespaces/inkscape"
   xmlns:sodipodi="http://sodipodi.sourceforge.net/DTD/sodipodi-0.dtd"
   xmlns="http://www.w3.org/2000/svg"
   xmlns:svg="http://www.w3.org/2000/svg"><defs
   id="defs12" /><sodipodi:namedview
   id="namedview10"
   pagecolor="#ffffff"
   bordercolor="#000000"
   borderopacity="0.25"
   inkscape:showpageshadow="2"
   inkscape:pageopacity="0.0"
   inkscape:pagecheckerboard="0"
   inkscape:deskcolor="#d1d1d1"
   showgrid="true"
   inkscape:zoom="51.35"
   inkscape:cx="10.019474"
   inkscape:cy="9.9902629"
   inkscape:window-width="2560"
   inkscape:window-height="1377"
   inkscape:window-x="-8"
   inkscape:window-y="-8"
   inkscape:window-maximized="1"
   inkscape:current-layer="svg8"><inkscape:grid
     type="xygrid"
     id="grid1061" /></sodipodi:namedview>
    <rect
   x="0"
   y="0"
   width="20"
   height="20"
   style="fill-opacity:0;"
   id="rect2" />
    <g
   transform="matrix(1,0,0,1,0,-2)"
   id="g6">
        <path
   d="M6.305,12.885C7.66,12.9 8.678,13.896 9.076,15.086C9.346,15.891 9.337,16.812 9.208,17.507C9.138,17.884 9.054,18.225 8.791,18.645C8.53,19.064 8.228,19.312 7.848,19.551C7.394,19.837 6.745,19.989 5.641,19.991C5.11,19.992 1.992,19.992 1.992,19.992C1.992,19.992 2.719,19.226 2.864,19.05C3.811,17.899 3.522,17.74 3.543,16.171C3.553,15.481 3.615,14.882 3.821,14.373C4.392,12.962 5.743,12.879 6.305,12.885ZM7.508,11.754L7.463,11.709C7.463,11.709 11.805,7.744 13.774,6.09C14.524,5.46 15.891,4.61 16.675,4.137C17.024,3.925 17.464,3.974 17.746,4.256L17.745,4.256C18.026,4.537 18.074,4.978 17.864,5.325C17.391,6.111 16.542,7.478 15.911,8.227C14.257,10.196 10.292,14.538 10.292,14.538L10.247,14.493C10.073,13.856 9.737,13.257 9.24,12.761C8.744,12.265 8.145,11.928 7.508,11.754Z"
   style="fill:black;"
   id="path4" />
    </g>
<circle
   style="fill:#1a1a1a;stroke:none;stroke-width:0.499999;stroke-linecap:round;stroke-miterlimit:1.6;stroke-opacity:0.8;stop-color:#000000"
   id="path953"
   cx="4.5"
   cy="4.5"
   r="3.5" /></svg>
