<?xml version="1.0" encoding="UTF-8" standalone="no"?>
<svg
   width="16px"
   height="16px"
   version="1.1"
   xml:space="preserve"
   style="fill-rule:evenodd;clip-rule:evenodd;stroke-linejoin:round;stroke-miterlimit:2;"
   id="svg6"
   sodipodi:docname="export_img.svg"
   inkscape:version="1.3.2 (091e20e, 2023-11-25, custom)"
   xmlns:inkscape="http://www.inkscape.org/namespaces/inkscape"
   xmlns:sodipodi="http://sodipodi.sourceforge.net/DTD/sodipodi-0.dtd"
   xmlns="http://www.w3.org/2000/svg"
   xmlns:svg="http://www.w3.org/2000/svg"><defs
   id="defs10" /><sodipodi:namedview
   id="namedview8"
   pagecolor="#ffffff"
   bordercolor="#000000"
   borderopacity="0.25"
   inkscape:showpageshadow="2"
   inkscape:pageopacity="0.0"
   inkscape:pagecheckerboard="0"
   inkscape:deskcolor="#d1d1d1"
   showgrid="true"
   inkscape:zoom="16.046875"
   inkscape:cx="30.255112"
   inkscape:cy="8.8802337"
   inkscape:window-width="2560"
   inkscape:window-height="1369"
   inkscape:window-x="-8"
   inkscape:window-y="-8"
   inkscape:window-maximized="1"
   inkscape:current-layer="svg6"><inkscape:grid
     type="xygrid"
     id="grid377"
     originx="0"
     originy="0"
     spacingy="1"
     spacingx="1"
     units="px"
     visible="true" /></sodipodi:namedview>
    <rect
   x="0"
   y="0"
   width="16"
   height="16"
   style="fill-opacity:0;"
   id="rect2" />
    <path
   d="M 13,10 V 7.5 C 13,7.224 13.224,7 13.5,7 13.776,7 14,7.224 14,7.5 v 3 C 14,10.776 13.776,11 13.5,11 H 1.5 C 1.224,11 1,10.776 1,10.5 v -3 C 1,7.224 1.224,7 1.5,7 1.776,7 2,7.224 2,7.5 V 10 Z"
   style="fill:#000000"
   id="path4"
   sodipodi:nodetypes="csssssssssscc" /><path
   d="M 8.00025,2.707 8,8.25 C 7.9999876,8.526 7.776,8.75 7.5,8.75 7.224,8.75 6.9999876,8.526 7,8.25 l 2.5e-4,-5.543 -3.146,3.147 c -0.196,0.195 -0.512,0.195 -0.708,0 -0.195,-0.196 -0.195,-0.512 0,-0.708 l 4,-4 0.025,-0.022 0.021,-0.018 0.012,-0.009 c 0.033,-0.024 0.068,-0.044 0.104,-0.059 h 10e-4 C 7.36825,1.013 7.43325,1 7.50025,1 c 0.067,0 0.132,0.013 0.191,0.038 h 10e-4 c 0.059,0.025 0.114,0.061 0.162,0.108 l 4,4 c 0.195,0.196 0.195,0.512 0,0.708 -0.196,0.195 -0.512,0.195 -0.708,0 z"
   style="clip-rule:evenodd;fill:#000000;fill-rule:evenodd;stroke-linejoin:round;stroke-miterlimit:2"
   id="path4-7"
   sodipodi:nodetypes="csssccccccccccsccccccc" />
<g
   aria-label="PNG"
   transform="matrix(2.0064501,0,0,0.75796369,-0.31038313,0.70074472)"
   id="text433"
   style="font-size:5.03219px;stroke-width:0.499999;stroke-linecap:round;stroke-miterlimit:1.6;stroke-opacity:0.8;stop-color:#000000"><text
     xml:space="preserve"
     style="font-size:4.1143px;font-family:'Franklin Gothic Medium Cond';-inkscape-font-specification:'Franklin Gothic Medium Cond';letter-spacing:-0.158142px;fill:#000000;stroke-width:0.192856"
     x="0.86966783"
     y="14.240067"
     id="text1"
     transform="scale(0.7512021,1.3311997)"><tspan
       sodipodi:role="line"
       id="tspan1"
       x="0.86966783"
       y="14.240067"
       style="font-style:normal;font-variant:normal;font-weight:normal;font-stretch:normal;font-family:'UD Digi Kyokasho NK-B';-inkscape-font-specification:'UD Digi Kyokasho NK-B';stroke-width:0.192856"
       transform="matrix(0.31785931,0,0,0.38152038,10.96932,7.7470109)">IMG</tspan></text></g></svg>
