<?xml version="1.0" encoding="UTF-8" standalone="no"?>
<svg
   width="16px"
   height="16px"
   version="1.1"
   xml:space="preserve"
   style="fill-rule:evenodd;clip-rule:evenodd;stroke-linejoin:round;stroke-miterlimit:2;"
   id="svg6"
   sodipodi:docname="export.svg"
   inkscape:version="1.2.1 (9c6d41e410, 2022-07-14)"
   xmlns:inkscape="http://www.inkscape.org/namespaces/inkscape"
   xmlns:sodipodi="http://sodipodi.sourceforge.net/DTD/sodipodi-0.dtd"
   xmlns="http://www.w3.org/2000/svg"
   xmlns:svg="http://www.w3.org/2000/svg"><defs
   id="defs10" /><sodipodi:namedview
   id="namedview8"
   pagecolor="#ffffff"
   bordercolor="#000000"
   borderopacity="0.25"
   inkscape:showpageshadow="2"
   inkscape:pageopacity="0.0"
   inkscape:pagecheckerboard="0"
   inkscape:deskcolor="#d1d1d1"
   showgrid="true"
   inkscape:zoom="64.1875"
   inkscape:cx="12.035054"
   inkscape:cy="7.7740993"
   inkscape:window-width="2560"
   inkscape:window-height="1377"
   inkscape:window-x="-8"
   inkscape:window-y="-8"
   inkscape:window-maximized="1"
   inkscape:current-layer="text433"><inkscape:grid
     type="xygrid"
     id="grid377" /></sodipodi:namedview>
    <rect
   x="0"
   y="0"
   width="16"
   height="16"
   style="fill-opacity:0;"
   id="rect2" />
    <path
   d="M 13,10 V 7.5 C 13,7.224 13.224,7 13.5,7 13.776,7 14,7.224 14,7.5 v 3 C 14,10.776 13.776,11 13.5,11 H 1.5 C 1.224,11 1,10.776 1,10.5 v -3 C 1,7.224 1.224,7 1.5,7 1.776,7 2,7.224 2,7.5 V 10 Z"
   style="fill:#000000"
   id="path4"
   sodipodi:nodetypes="csssssssssscc" /><path
   d="M 8.00025,2.707 8,8.25 C 7.9999876,8.526 7.776,8.75 7.5,8.75 7.224,8.75 6.9999876,8.526 7,8.25 l 2.5e-4,-5.543 -3.146,3.147 c -0.196,0.195 -0.512,0.195 -0.708,0 -0.195,-0.196 -0.195,-0.512 0,-0.708 l 4,-4 0.025,-0.022 0.021,-0.018 0.012,-0.009 c 0.033,-0.024 0.068,-0.044 0.104,-0.059 h 10e-4 C 7.36825,1.013 7.43325,1 7.50025,1 c 0.067,0 0.132,0.013 0.191,0.038 h 10e-4 c 0.059,0.025 0.114,0.061 0.162,0.108 l 4,4 c 0.195,0.196 0.195,0.512 0,0.708 -0.196,0.195 -0.512,0.195 -0.708,0 z"
   style="clip-rule:evenodd;fill:#000000;fill-rule:evenodd;stroke-linejoin:round;stroke-miterlimit:2"
   id="path4-7"
   sodipodi:nodetypes="csssccccccccccsccccccc" />
<g
   aria-label="PNG"
   transform="scale(1.241666,0.80536959)"
   id="text433"
   style="font-size:5.03219px;stroke-width:0.499999;stroke-linecap:round;stroke-miterlimit:1.6;stroke-opacity:0.8;stop-color:#000000"><path
     d="M 2.793749,17.160549 H 2.2282325 v 1.019706 q 0,0.218684 -0.087322,0.331712 -0.087322,0.113027 -0.2203851,0.113027 -0.1392999,0 -0.2245433,-0.11057 -0.085243,-0.113028 -0.085243,-0.329255 v -2.77655 q 0,-0.240798 0.09356,-0.343997 0.09356,-0.103199 0.2973117,-0.103199 h 0.7921388 q 0.3513687,0 0.5405672,0.06389 0.1871195,0.06143 0.3222613,0.203941 0.1372209,0.142513 0.2079104,0.348912 0.070689,0.206398 0.070689,0.464396 0,0.550396 -0.2869163,0.835422 -0.2869166,0.28257 -0.8545122,0.28257 z M 2.6440535,15.509361 h -0.415821 v 1.100792 h 0.415821 q 0.218306,0 0.3638434,-0.05406 0.1476164,-0.05406 0.2245432,-0.176913 0.076927,-0.122856 0.076927,-0.321883 0,-0.238341 -0.1185091,-0.388226 -0.1330627,-0.159713 -0.5468045,-0.159713 z"
     style="font-family:'Arial Rounded MT Bold';-inkscape-font-specification:'Arial Rounded MT Bold, ';stroke-width:0.499999"
     id="path485" /><path
     d="m 5.255409,15.337363 1.1871688,2.122955 v -2.142612 q 0,-0.208856 0.074847,-0.312055 0.076927,-0.105656 0.2058313,-0.105656 0.1330627,0 0.2099896,0.105656 0.076927,0.103199 0.076927,0.312055 v 2.833064 q 0,0.474224 -0.3326567,0.474224 -0.083164,0 -0.1496955,-0.02949 -0.066531,-0.02703 -0.124746,-0.08846 -0.058215,-0.06142 -0.1081133,-0.142505 -0.049899,-0.08354 -0.099797,-0.169541 L 5.037103,16.096614 v 2.110669 q 0,0.206399 -0.081085,0.312055 -0.081085,0.105656 -0.2079105,0.105656 -0.1309837,0 -0.2099896,-0.105656 -0.079007,-0.108113 -0.079007,-0.312055 v -2.779007 q 0,-0.176913 0.033266,-0.277655 0.039503,-0.11057 0.1309836,-0.17937 0.09148,-0.07126 0.1975149,-0.07126 0.083165,0 0.1413791,0.03194 0.060294,0.03194 0.1039553,0.086 0.045741,0.05406 0.09148,0.140056 0.047819,0.086 0.097718,0.17937 z"
     style="font-family:'Arial Rounded MT Bold';-inkscape-font-specification:'Arial Rounded MT Bold, ';stroke-width:0.499999"
     id="path487" /><path
     d="m 10.469805,17.099121 v 0.690451 q 0,0.137599 -0.02287,0.221142 -0.02287,0.08109 -0.08524,0.147427 -0.06029,0.06634 -0.155933,0.12777 -0.2765211,0.176913 -0.5322516,0.257998 -0.2557296,0.08109 -0.5571997,0.08109 -0.3513687,0 -0.6403642,-0.12777 Q 8.1869467,18.369454 7.9831944,18.126198 7.7794422,17.882943 7.6692496,17.536489 7.5611362,17.190034 7.5611362,16.762495 q 0,-0.420169 0.1060343,-0.76908 0.1060343,-0.348912 0.3118657,-0.592167 0.2058313,-0.243255 0.5010642,-0.371026 0.2952329,-0.130227 0.6694717,-0.130227 0.3077079,0 0.5447258,0.09829 0.2370178,0.09583 0.3846341,0.243255 0.147616,0.147427 0.222466,0.312055 0.07485,0.164627 0.07485,0.292397 0,0.137599 -0.08732,0.235884 -0.08524,0.09583 -0.205831,0.09583 -0.06653,0 -0.128906,-0.03686 -0.060297,-0.03686 -0.1018762,-0.103199 -0.1143528,-0.211313 -0.1933582,-0.319426 -0.079005,-0.108114 -0.2141481,-0.181827 -0.1330629,-0.07371 -0.3409733,-0.07371 -0.2141478,0 -0.3825553,0.08846 -0.1684074,0.086 -0.2889955,0.253084 -0.118509,0.164628 -0.1829613,0.405426 -0.062373,0.240798 -0.062373,0.533196 0,0.633938 0.2453344,0.975478 0.2474133,0.34154 0.6881836,0.34154 0.2141478,0 0.4012671,-0.06634 0.1891992,-0.06634 0.3825555,-0.189199 v -0.584795 h -0.478194 q -0.1725662,0 -0.2619678,-0.06143 -0.087322,-0.06143 -0.087322,-0.208855 0,-0.120399 0.072769,-0.199027 0.074847,-0.07863 0.2016731,-0.07863 h 0.700658 q 0.128906,0 0.218306,0.02703 0.08941,0.02703 0.14346,0.120399 0.05613,0.09337 0.05613,0.280113 z"
     style="font-family:'Arial Rounded MT Bold';-inkscape-font-specification:'Arial Rounded MT Bold, ';stroke-width:0.499999"
     id="path489" /></g></svg>
